<svg width="107" height="22" viewBox="0 0 107 22" fill="none" xmlns="http://www.w3.org/2000/svg">
<g clip-path="url(#clip0_1_44)">
<path d="M50.7222 5.87089H55.6394V8.00622H55.6955C56.6225 6.41098 58.7075 5.41916 60.5549 5.41916C65.7047 5.41916 66.1269 9.20973 66.1269 11.4684V21.4916H61.0613V13.9371C61.0613 11.7985 61.3021 9.63313 58.531 9.63313C56.6242 9.63313 55.7879 11.2567 55.7879 12.9753V21.4916H50.7255V5.87089H50.7222Z" fill="#595758"/>
<path d="M72.7893 16.4008C72.7893 17.1843 73.1175 17.756 73.6223 18.1494C74.099 18.5095 74.7868 18.6912 75.4978 18.6912C76.4825 18.6912 77.8829 18.2678 77.8829 17.0326C77.8829 15.7974 76.306 15.5907 75.4103 15.3773C72.2252 14.5639 68.2317 14.4772 68.2317 10.2616C68.2317 6.49932 72.2515 5.47583 75.2916 5.47583C78.6846 5.47583 82.2327 6.46765 82.4108 10.5316H77.7345C77.7345 9.8715 77.497 9.4481 77.0796 9.17806C76.6607 8.90802 76.0965 8.788 75.4697 8.788C74.6367 8.788 73.294 8.87635 73.294 9.96151C73.294 11.4367 76.6904 11.7084 79.0129 12.2202C82.1403 12.8536 82.9469 15.1406 82.9469 16.4342C82.9469 20.6181 79.0129 22.0033 75.5308 22.0033C71.8656 22.0033 68.1129 20.7698 67.9628 16.4042H72.7893V16.4008Z" fill="#595758"/>
<path d="M92.1759 17.9994C94.5281 17.9994 95.2737 15.654 95.2737 13.6671C95.2737 11.6801 94.5281 9.30473 92.1759 9.30473C89.8237 9.30473 89.1079 11.6818 89.1079 13.6671C89.1079 15.6524 89.8204 17.9994 92.1759 17.9994ZM92.1759 5.39081C96.971 5.39081 100.336 8.97302 100.336 13.6671C100.336 18.3611 96.9694 21.915 92.1759 21.915C87.3825 21.915 84.0455 18.3628 84.0455 13.6671C84.0455 8.97135 87.3808 5.39081 92.1759 5.39081Z" fill="#595758"/>
<path d="M107 0H101.934V21.4899H107V0Z" fill="#595758"/>
<path d="M12.462 0H18.2484V7.95287H24.9421V0H30.689V21.4916H24.9421V13.0153H18.2484V21.4916H12.462V0Z" fill="#595758"/>
<path d="M6.61121 0H0V7.63116H6.61121V0Z" fill="#106FB5"/>
<path d="M6.61121 13.5871H0V21.4899H6.61121V13.5871Z" fill="#139244"/>
<path d="M39.7992 18.7828C42.2125 18.7828 43.0158 17.3993 42.897 14.1788C42.1828 14.6305 40.8731 14.7222 39.7696 15.0223C38.638 15.2923 37.6862 15.7724 37.6862 17.0076C37.6862 18.2428 38.6693 18.7828 39.7992 18.7828ZM33.2474 10.6883C33.3381 8.63797 34.2916 7.31777 35.6606 6.50265C37.0297 5.72086 38.8178 5.42249 40.5729 5.42249C44.2348 5.42249 47.7812 6.23261 47.7812 10.6549V17.4893C47.7812 18.8145 47.7812 20.2581 48.3783 21.4899H43.2846C43.1048 21.0082 43.0438 20.5281 42.9844 20.0147C41.6764 21.3999 39.7399 21.94 37.8941 21.94C34.9464 21.94 32.6223 20.4364 32.6223 17.2159C32.6223 12.1302 38.1036 12.5219 41.6153 11.7985C42.4813 11.6184 42.9564 11.3167 42.9564 10.3549C42.9564 9.17972 41.556 8.72965 40.5151 8.72965C39.1163 8.72965 38.2207 9.35975 37.9848 10.6866H33.2491L33.2474 10.6883Z" fill="#595758"/>
</g>
<defs>
<clipPath id="clip0_1_44">
<rect width="107" height="22" fill="white"/>
</clipPath>
</defs>
</svg>
