<svg width="120" height="30" viewBox="0 0 120 30" fill="none" xmlns="http://www.w3.org/2000/svg">
<rect width="120" height="30" rx="15" fill="#00B495"/>
<path d="M14.55 15.491V16.668H23.779V15.491H14.55ZM18.4 16.25V19.99H19.852V16.25H18.4ZM19.137 10.134C16.97 10.134 15.463 11.036 15.463 12.433C15.463 13.819 16.97 14.71 19.137 14.71C21.315 14.71 22.822 13.819 22.822 12.433C22.822 11.036 21.315 10.134 19.137 10.134ZM19.137 11.3C20.479 11.3 21.315 11.696 21.315 12.433C21.315 13.159 20.479 13.555 19.137 13.555C17.806 13.555 16.959 13.159 16.959 12.433C16.959 11.696 17.806 11.3 19.137 11.3ZM31.6321 9.782V20.001H33.0951V9.782H31.6321ZM25.1641 16.437V17.625H26.0661C27.9251 17.625 29.4211 17.57 31.0711 17.273L30.9281 16.096C29.3111 16.371 27.8701 16.437 26.0661 16.437H25.1641ZM25.1531 10.651V11.817H28.4641V13.434H25.1641V16.877H26.6491V14.589H29.9601V10.651H25.1531ZM37.1533 10.673V11.3C37.1533 12.499 36.4163 13.731 34.7113 14.226L35.4483 15.37C37.4063 14.776 38.3523 13.126 38.3523 11.3V10.673H37.1533ZM37.4503 10.673V11.3C37.4503 13.06 38.3963 14.633 40.3213 15.194L41.0363 14.061C39.3863 13.588 38.6493 12.433 38.6493 11.3V10.673H37.4503ZM35.1073 10.343V11.498H40.6513V10.343H35.1073ZM41.6743 9.793V15.315H43.1483V9.793H41.6743ZM36.3723 15.755V19.869H43.1483V15.755H41.6963V16.679H37.8133V15.755H36.3723ZM37.8133 17.812H41.6963V18.703H37.8133V17.812ZM54.0805 9.793V17.295H55.5435V9.793H54.0805ZM50.9125 10.552V11.234C50.9125 12.939 49.5155 14.336 47.1505 15.084L47.7555 16.239C50.7145 15.326 52.4635 13.313 52.4635 10.552H50.9125ZM47.6895 10.552V11.729H51.8255V10.552H47.6895ZM51.9025 11.74V12.917H54.2895V11.74H51.9025ZM51.8035 14.039V15.205H54.2125V14.039H51.8035ZM48.8665 18.637V19.803H55.7965V18.637H48.8665ZM48.8665 16.569V19.385H50.3405V16.569H48.8665ZM59.4366 10.805V11.454C59.4366 12.73 58.7106 14.072 57.0276 14.622L57.7646 15.777C59.7226 15.139 60.6246 13.368 60.6246 11.454V10.805H59.4366ZM59.7446 10.805V11.454C59.7446 13.258 60.6136 14.952 62.5056 15.579L63.2206 14.435C61.6146 13.896 60.9216 12.642 60.9216 11.454V10.805H59.7446ZM62.6266 12.224V13.412H64.5626V12.224H62.6266ZM57.4236 10.354V11.509H62.9016V10.354H57.4236ZM58.6666 16.316V17.482H64.1446V19.979H65.6076V16.316H58.6666ZM64.1446 9.793V15.854H65.6076V9.793H64.1446ZM73.7027 9.793V15.733H75.1657V9.793H73.7027ZM74.7587 12.103V13.302H76.5187V12.103H74.7587ZM67.4437 10.387V15.238H72.3387V10.387H70.8867V11.674H68.8957V10.387H67.4437ZM68.8957 12.796H70.8867V14.094H68.8957V12.796ZM68.5437 16.184V19.528H70.0067V17.339H75.2207V16.184H68.5437ZM68.5437 18.703V19.858H75.4187V18.703H68.5437ZM84.2289 9.793V19.979H85.7029V9.793H84.2289ZM81.2259 10.849V11.113C81.2259 13.841 80.1699 15.689 77.2439 17.097L78.0029 18.263C81.6219 16.514 82.6779 13.962 82.6779 10.849H81.2259ZM77.7829 10.849V12.004H81.9189V10.849H77.7829Z" fill="white"/>
<path d="M93 13.1818L98 9.5L103 13.1818V20.5H99.5V17.75H98H96.5V20.5H93V13.1818Z" stroke="white" stroke-linecap="round" stroke-linejoin="round"/>
<path d="M96.5 13.5041L98 12.5L99.5 13.5041V15.5H98H96.5V13.5041Z" stroke="white" stroke-linecap="round" stroke-linejoin="round"/>
<circle cx="94" cy="19" r="4" fill="white"/>
<path d="M95.5 17.75L93.4375 20L92.5 18.9773" stroke="#00B495" stroke-linecap="round" stroke-linejoin="round"/>
</svg>
